<svg width="32" height="31" viewBox="0 0 32 31" fill="none" xmlns="http://www.w3.org/2000/svg">
<g clip-path="url(#clip0_1_3265)">
<path d="M4.63761 5.66122L4.30171 5.33491C3.96581 5.00861 3.42319 5.01697 3.0959 5.33491L3.08729 5.34328C2.75138 5.66959 2.75138 6.1967 3.08729 6.51464L3.42319 6.84095C3.7591 7.16725 4.2931 7.16725 4.629 6.84095L4.63761 6.83258C4.97352 6.51464 4.97352 5.97916 4.63761 5.66122Z" fill="white"/>
<path d="M2.01928 10.9825H1.14077C0.667055 10.9825 0.288086 11.3507 0.288086 11.8109V11.8192C0.288086 12.2794 0.667055 12.6475 1.14077 12.6475H2.01067C2.493 12.6559 2.87196 12.2878 2.87196 11.8276V11.8192C2.87196 11.3507 2.493 10.9825 2.01928 10.9825Z" fill="white"/>
<path d="M9.77092 2.65752H9.76231C9.27998 2.65752 8.90101 3.02567 8.90101 3.48584V4.28906C8.90101 4.74924 9.27998 5.11738 9.75369 5.11738H9.76231C10.2446 5.12574 10.6236 4.7576 10.6236 4.29743V3.48584C10.6236 3.02567 10.2446 2.65752 9.77092 2.65752Z" fill="white"/>
<path d="M16.4373 5.34328C16.1014 5.01697 15.5588 5.01697 15.2229 5.33491L14.887 5.66122C14.5511 5.98753 14.5511 6.51464 14.887 6.83258L14.8956 6.84095C15.2315 7.16725 15.7741 7.16725 16.1014 6.84095L16.4373 6.51464C16.7732 6.18833 16.7732 5.66959 16.4373 5.34328Z" fill="white"/>
<path d="M9.76231 6.79911C6.91143 6.79911 4.59455 9.04979 4.59455 11.8192C4.59455 13.6144 5.56802 15.1916 7.02939 16.0791C7.72866 14.1112 9.65217 12.6977 11.9155 12.6977C12.0046 12.6977 12.0932 12.6999 12.1811 12.7043C12.5542 11.418 13.3015 10.284 14.3015 9.42019C13.4244 7.8595 11.7191 6.79911 9.76231 6.79911Z" fill="white"/>
<path d="M3.08729 18.2952C3.42319 18.6215 3.96581 18.6215 4.30171 18.2952L4.63761 17.9689C4.97352 17.6425 4.96491 17.1154 4.63761 16.7975L4.629 16.7891C4.2931 16.4628 3.75048 16.4628 3.41458 16.7891L3.07867 17.1154C2.75138 17.4501 2.75138 17.9689 3.08729 18.2952Z" fill="white"/>
<path d="M9.33166 26.503H26.1269C28.9809 26.503 31.2946 24.2555 31.2946 21.4829C31.2946 19.1283 29.6259 17.1523 27.3745 16.6101C27.4038 16.3558 27.4188 16.0972 27.4188 15.8353C27.4188 12.0231 24.2375 8.93266 20.3131 8.93266C17.0582 8.93266 14.3144 11.0587 13.4731 13.9593C13.3851 13.955 13.2965 13.9528 13.2075 13.9528C10.3534 13.9528 8.03972 16.2003 8.03972 18.9729C8.03972 19.0441 8.04125 19.115 8.04428 19.1856C6.53654 19.7012 5.45584 21.097 5.45584 22.738C5.45584 24.8173 7.19111 26.503 9.33166 26.503Z" fill="white"/>
</g>
<defs>
<clipPath id="clip0_1_3265">
<rect width="31.0065" height="30.1206" fill="white" transform="translate(0.288086 0.147469)"/>
</clipPath>
</defs>
</svg>
