<svg width="26" height="26" viewBox="0 0 26 26" fill="none" xmlns="http://www.w3.org/2000/svg">
<path d="M5.42951 18.4628H18.8657C21.1489 18.4628 22.9999 16.6118 22.9999 14.3286C22.9999 12.3895 21.6649 10.7622 19.8638 10.3157C19.8872 10.1062 19.8992 9.89328 19.8992 9.67757C19.8992 6.53809 17.3542 3.99304 14.2147 3.99304C11.6107 3.99304 9.41569 5.74391 8.74263 8.13261C8.67226 8.12905 8.60142 8.12725 8.53017 8.12725C6.24691 8.12725 4.39596 9.97819 4.39596 12.2615C4.39596 12.3201 4.39718 12.3785 4.3996 12.4366C3.19341 12.8612 2.32886 14.0107 2.32886 15.3621C2.32886 17.0746 3.71707 18.4628 5.42951 18.4628Z" fill="white" fill-opacity="0.6"/>
<path d="M7.92511 19.4963C7.6625 19.4963 7.42243 19.6447 7.30498 19.8796L5.93121 22.6271C5.70071 23.0881 6.03593 23.6305 6.55134 23.6305C6.81395 23.6305 7.05403 23.4821 7.17147 23.2473L8.54525 20.4997C8.77574 20.0387 8.44052 19.4963 7.92511 19.4963Z" fill="white" fill-opacity="0.6"/>
<path d="M11.0258 19.4963C11.5412 19.4963 11.8764 20.0387 11.6459 20.4997L10.2721 23.2473C10.1547 23.4821 9.91461 23.6305 9.65199 23.6305C9.13659 23.6305 8.80136 23.0881 9.03186 22.6271L10.4056 19.8796C10.5231 19.6447 10.7632 19.4963 11.0258 19.4963Z" fill="white" fill-opacity="0.6"/>
<path d="M17.2271 19.4963C17.7425 19.4963 18.0777 20.0387 17.8472 20.4997L16.4734 23.2473C16.356 23.4821 16.1159 23.6305 15.8533 23.6305C15.3379 23.6305 15.0027 23.0881 15.2332 22.6271L16.6069 19.8796C16.7244 19.6447 16.9645 19.4963 17.2271 19.4963Z" fill="white" fill-opacity="0.6"/>
<path d="M14.1264 19.4963C14.6418 19.4963 14.9771 20.0387 14.7466 20.4997L13.3728 23.2473C13.2553 23.4821 13.0153 23.6305 12.7526 23.6305C12.2372 23.6305 11.902 23.0881 12.1325 22.6271L13.5063 19.8796C13.6237 19.6447 13.8638 19.4963 14.1264 19.4963Z" fill="white" fill-opacity="0.6"/>
</svg>
