<svg width="28" height="27" viewBox="0 0 28 27" fill="none" xmlns="http://www.w3.org/2000/svg">
<path d="M7.52058 5.4498L7.0885 5.01595C6.65643 4.5821 5.95847 4.59322 5.53747 5.01595L5.52639 5.02707C5.09432 5.46092 5.09432 6.16175 5.52639 6.58448L5.95846 7.01833C6.39054 7.45218 7.07742 7.45218 7.5095 7.01833L7.52058 7.0072C7.95265 6.58448 7.95265 5.87252 7.52058 5.4498ZM4.15262 12.5249H3.02258C2.41325 12.5249 1.92578 13.0143 1.92578 13.6262V13.6373C1.92578 14.2491 2.41325 14.7386 3.02258 14.7386H4.14154C4.76195 14.7497 5.24942 14.2603 5.24942 13.6484V13.6373C5.24942 13.0143 4.76195 12.5249 4.15262 12.5249ZM14.1235 1.45616H14.1125C13.492 1.45616 13.0046 1.94563 13.0046 2.55747V3.62541C13.0046 4.23724 13.492 4.72671 14.1014 4.72671H14.1125C14.7329 4.73784 15.2203 4.24837 15.2203 3.63653V2.55747C15.2203 1.94563 14.7329 1.45616 14.1235 1.45616ZM22.6985 5.02707C22.2665 4.59322 21.5685 4.59322 21.1364 5.01595L20.7043 5.4498C20.2723 5.88364 20.2723 6.58448 20.7043 7.0072L20.7154 7.01833C21.1475 7.45218 21.8455 7.45218 22.2665 7.01833L22.6985 6.58448C23.1306 6.15063 23.1306 5.46092 22.6985 5.02707ZM20.6933 21.8248L21.1253 22.2587C21.5574 22.6925 22.2554 22.6925 22.6875 22.2587C23.1195 21.8248 23.1195 21.124 22.6875 20.6901L22.2554 20.2563C21.8233 19.8224 21.1253 19.8336 20.7043 20.2563C20.2612 20.7013 20.2612 21.391 20.6933 21.8248ZM22.9755 13.6262V13.6373C22.9755 14.2491 23.463 14.7386 24.0723 14.7386H25.1913C25.8006 14.7386 26.2881 14.2491 26.2881 13.6373V13.6262C26.2881 13.0143 25.8006 12.5249 25.1913 12.5249H24.0723C23.463 12.5249 22.9755 13.0143 22.9755 13.6262ZM14.1125 6.9627C10.4454 6.9627 7.46518 9.95515 7.46518 13.6373C7.46518 17.3195 10.4454 20.3119 14.1125 20.3119C17.7795 20.3119 20.7597 17.3195 20.7597 13.6373C20.7597 9.95515 17.7795 6.9627 14.1125 6.9627ZM14.1014 25.8184H14.1125C14.7218 25.8184 15.2093 25.329 15.2093 24.7171V23.6492C15.2093 23.0374 14.7218 22.5479 14.1125 22.5479H14.1014C13.492 22.5479 13.0046 23.0374 13.0046 23.6492V24.7171C13.0046 25.329 13.492 25.8184 14.1014 25.8184ZM5.52639 22.2475C5.95846 22.6814 6.65643 22.6814 7.0885 22.2475L7.52058 21.8137C7.95265 21.3798 7.94157 20.679 7.52058 20.2563L7.5095 20.2452C7.07742 19.8113 6.37946 19.8113 5.94739 20.2452L5.51531 20.679C5.09432 21.124 5.09432 21.8137 5.52639 22.2475Z" fill="white" fill-opacity="0.8"/>
</svg>
