<svg width="25" height="26" viewBox="0 0 25 26" fill="none" xmlns="http://www.w3.org/2000/svg">
<path d="M15.5711 18.4628H18.6626C20.9458 18.4628 22.7968 16.6118 22.7968 14.3286C22.7968 12.3895 21.4617 10.7622 19.6607 10.3157C19.6841 10.1062 19.6961 9.8933 19.6961 9.67759C19.6961 6.53811 17.1511 3.99306 14.0116 3.99306C11.4076 3.99306 9.21257 5.74393 8.5395 8.13263C8.46913 8.12907 8.3983 8.12726 8.32704 8.12726C6.04378 8.12726 4.19284 9.97821 4.19284 12.2615C4.19284 12.3201 4.19406 12.3785 4.19648 12.4366C2.99029 12.8612 2.12573 14.0107 2.12573 15.3621C2.12573 17.0746 3.51394 18.4628 5.22639 18.4628H8.1702L12.5974 10.7151C13.1233 9.79491 14.5283 10.168 14.5283 11.2279V15.3621H15.5619C16.3555 15.3621 16.853 16.2194 16.4593 16.9085L15.5711 18.4628Z" fill="white" fill-opacity="0.6"/>
<path d="M9.36059 18.4628L13.4948 11.2279V16.3957H15.5619L11.4277 23.6305V18.4628H9.36059Z" fill="white" fill-opacity="0.6"/>
</svg>
